# xmcd
#
# Track frame offsets: 
#        150
#        17152
#        32315
#        48172
#        68575
#        83055
#        101647
#        114737
#        134232
#        151070
#        166565
#        186627
#        202495
#        221580
#        235442
#        253220
#        270460
#        289605
#        305115
#        322730
#
# Disc length: 4458 seconds
#
# Revision: 5
# Processed by: cddbd v1.4PL0 Copyright (c) Steve Scherf et al.
# Submitted via: ExactAudioCopy v0.95a4
#
DISCID=22116814
DTITLE=Terry and McGhee - Midnight Special
DYEAR=1989
DGENRE=Blues
TTITLE0=Sonny's Squall
TTITLE1=Red River Blues
TTITLE2=Gone Gal
TTITLE3=Blues Before Sunrise
TTITLE4=Sweet Lovin' Kind
TTITLE5=Midnight Special
TTITLE6=Take This Hammer Whup
TTITLE7=Too Nicey Mama
TTITLE8=Meet Me Down the Bottom
TTITLE9=Tryin' to Win
TTITLE10=Blues All Around My Head
TTITLE11=East Coast Blues
TTITLE12=Muddy Water
TTITLE13=Beggin' and Cryin'
TTITLE14=My Plan
TTITLE15=Trying to Destroy Me
TTITLE16=Everything I Had is Gone
TTITLE17=Jealous Man
TTITLE18=Understand Me
TTITLE19=Blues Of Happiness
EXTD=
EXTT0=
EXTT1=
EXTT2=
EXTT3=
EXTT4=
EXTT5=
EXTT6=
EXTT7=
EXTT8=
EXTT9=
EXTT10=
EXTT11=
EXTT12=
EXTT13=
EXTT14=
EXTT15=
EXTT16=
EXTT17=
EXTT18=
EXTT19=
PLAYORDER=
